<svg width="48" height="24" viewBox="0 0 48 24" fill="none" xmlns="http://www.w3.org/2000/svg">
<path d="M0 2.4H48V0H0V2.4Z" fill="#3B3B3D"/>
<path d="M2.31724 4.8H45.6828V2.4H2.31724V4.8Z" fill="#3B3B3D"/>
<path d="M5.21379 7.2H42.7862V4.8H5.21379V7.2Z" fill="#3B3B3D"/>
<path d="M7.94483 9.6H40.0552V7.2H7.94483V9.6Z" fill="#3B3B3D"/>
<path d="M10.3448 12H37.6552V9.6H10.3448V12Z" fill="#3B3B3D"/>
<path d="M12.9103 14.4H35.0897V12H12.9103V14.4Z" fill="#3B3B3D"/>
<path d="M15.6414 16.8H32.3586V14.4H15.6414V16.8Z" fill="#3B3B3D"/>
<path d="M17.7931 19.2H30.2069V16.8H17.7931V19.2Z" fill="#3B3B3D"/>
<path d="M19.8621 21.6H28.1379V19.2H19.8621V21.6Z" fill="#3B3B3D"/>
<path d="M21.6 24H26.4V21.6H21.6V24Z" fill="#3B3B3D"/>
</svg>
