<svg width="25" height="26" viewBox="0 0 25 26" fill="none" xmlns="http://www.w3.org/2000/svg">
<path d="M1.78571 25H3.57143M10.7143 1H19.6429H10.7143ZM10.7143 1.92308H19.6429H10.7143ZM8.92857 2.84615H12.5H8.92857ZM17.8571 2.84615H21.4286H17.8571ZM8.92857 3.76923H12.5H8.92857ZM17.8571 3.76923H21.4286H17.8571ZM7.14286 4.69231H10.7143H7.14286ZM19.6429 4.69231H23.2143H19.6429ZM7.14286 5.61538H10.7143H7.14286ZM19.6429 5.61538H23.2143H19.6429ZM5.35714 6.53846H8.92857H5.35714ZM12.5 6.53846H16.0714H12.5ZM21.4286 6.53846H25H21.4286ZM5.35714 7.46154H8.92857H5.35714ZM12.5 7.46154H16.0714H12.5ZM21.4286 7.46154H25H21.4286ZM5.35714 8.38462H7.14286H5.35714ZM12.5 8.38462H16.0714H12.5ZM23.2143 8.38462H25H23.2143ZM5.35714 9.30769H7.14286H5.35714ZM12.5 9.30769H16.0714H12.5ZM23.2143 9.30769H25H23.2143ZM5.35714 10.2308H7.14286H5.35714ZM19.6429 10.2308H21.4286H19.6429ZM23.2143 10.2308H25H23.2143ZM5.35714 11.1538H7.14286H5.35714ZM19.6429 11.1538H21.4286H19.6429ZM23.2143 11.1538H25H23.2143ZM5.35714 12.0769H7.14286H5.35714ZM19.6429 12.0769H21.4286H19.6429ZM23.2143 12.0769H25H23.2143ZM5.35714 13H7.14286H5.35714ZM19.6429 13H21.4286H19.6429ZM23.2143 13H25H23.2143ZM5.35714 13.9231H8.92857H5.35714ZM17.8571 13.9231H19.6429H17.8571ZM21.4286 13.9231H25H21.4286ZM5.35714 14.8462H8.92857H5.35714ZM17.8571 14.8462H19.6429H17.8571ZM21.4286 14.8462H25H21.4286ZM7.14286 15.7692H10.7143H7.14286ZM14.2857 15.7692H17.8571H14.2857ZM19.6429 15.7692H23.2143H19.6429ZM7.14286 16.6923H10.7143H7.14286ZM14.2857 16.6923H17.8571H14.2857ZM19.6429 16.6923H23.2143H19.6429ZM5.35714 17.6154H7.14286H5.35714ZM8.92857 17.6154H12.5H8.92857ZM17.8571 17.6154H21.4286H17.8571ZM5.35714 18.5385H7.14286H5.35714ZM8.92857 18.5385H12.5H8.92857ZM17.8571 18.5385H21.4286H17.8571ZM3.57143 19.4615H8.92857H3.57143ZM10.7143 19.4615H19.6429H10.7143ZM3.57143 20.3846H8.92857H3.57143ZM10.7143 20.3846H19.6429H10.7143ZM1.78571 21.3077H7.14286H1.78571ZM1.78571 22.2308H7.14286H1.78571ZM0 23.1538H5.35714H0ZM0 24.0769H5.35714H0Z" stroke="#545456"/>
</svg>
